<mxfile host="65bd71144e">
    <diagram id="QqobI69Z19jTl8bJT37f" name="Page-1">
        <mxGraphModel dx="1239" dy="1092" grid="1" gridSize="10" guides="1" tooltips="1" connect="1" arrows="1" fold="1" page="1" pageScale="1" pageWidth="850" pageHeight="1100" math="0" shadow="0">
            <root>
                <mxCell id="0"/>
                <mxCell id="1" parent="0"/>
                <mxCell id="4" style="edgeStyle=none;rounded=0;orthogonalLoop=1;jettySize=auto;html=1;" edge="1" parent="1" source="3" target="5">
                    <mxGeometry relative="1" as="geometry">
                        <mxPoint x="510" y="760" as="targetPoint"/>
                    </mxGeometry>
                </mxCell>
                <mxCell id="6" style="edgeStyle=none;rounded=0;orthogonalLoop=1;jettySize=auto;html=1;" edge="1" parent="1" source="3" target="7">
                    <mxGeometry relative="1" as="geometry">
                        <mxPoint x="640" y="730" as="targetPoint"/>
                    </mxGeometry>
                </mxCell>
                <mxCell id="8" style="edgeStyle=none;rounded=0;orthogonalLoop=1;jettySize=auto;html=1;" edge="1" parent="1" source="3" target="9">
                    <mxGeometry relative="1" as="geometry">
                        <mxPoint x="720" y="640" as="targetPoint"/>
                    </mxGeometry>
                </mxCell>
                <mxCell id="10" style="edgeStyle=none;rounded=0;orthogonalLoop=1;jettySize=auto;html=1;" edge="1" parent="1" source="3" target="11">
                    <mxGeometry relative="1" as="geometry">
                        <mxPoint x="480" y="630" as="targetPoint"/>
                    </mxGeometry>
                </mxCell>
                <mxCell id="12" style="edgeStyle=none;rounded=0;orthogonalLoop=1;jettySize=auto;html=1;" edge="1" parent="1" source="3" target="13">
                    <mxGeometry relative="1" as="geometry">
                        <mxPoint x="690" y="680" as="targetPoint"/>
                    </mxGeometry>
                </mxCell>
                <mxCell id="3" value="Admin/ OAuth" style="whiteSpace=wrap;html=1;aspect=fixed;" vertex="1" parent="1">
                    <mxGeometry x="345" y="660" width="90" height="90" as="geometry"/>
                </mxCell>
                <mxCell id="5" value="Name" style="ellipse;whiteSpace=wrap;html=1;" vertex="1" parent="1">
                    <mxGeometry x="30" y="740" width="120" height="40" as="geometry"/>
                </mxCell>
                <mxCell id="7" value="Bar Choice" style="ellipse;whiteSpace=wrap;html=1;" vertex="1" parent="1">
                    <mxGeometry x="610" y="670" width="120" height="40" as="geometry"/>
                </mxCell>
                <mxCell id="9" value="Hometown" style="ellipse;whiteSpace=wrap;html=1;" vertex="1" parent="1">
                    <mxGeometry x="380" y="865" width="120" height="40" as="geometry"/>
                </mxCell>
                <mxCell id="11" value="Birthdate" style="ellipse;whiteSpace=wrap;html=1;" vertex="1" parent="1">
                    <mxGeometry x="180" y="860" width="120" height="50" as="geometry"/>
                </mxCell>
                <mxCell id="13" value="Email" style="ellipse;whiteSpace=wrap;html=1;" vertex="1" parent="1">
                    <mxGeometry x="590" y="800" width="120" height="42.5" as="geometry"/>
                </mxCell>
                <mxCell id="21" style="edgeStyle=none;rounded=0;orthogonalLoop=1;jettySize=auto;html=1;entryX=1;entryY=0.5;entryDx=0;entryDy=0;exitX=0;exitY=0.5;exitDx=0;exitDy=0;" edge="1" parent="1" source="14" target="20">
                    <mxGeometry relative="1" as="geometry"/>
                </mxCell>
                <mxCell id="14" value="Users" style="whiteSpace=wrap;html=1;aspect=fixed;" vertex="1" parent="1">
                    <mxGeometry x="620" y="185" width="120" height="120" as="geometry"/>
                </mxCell>
                <mxCell id="15" style="edgeStyle=none;rounded=0;orthogonalLoop=1;jettySize=auto;html=1;exitX=0.5;exitY=1;exitDx=0;exitDy=0;" edge="1" parent="1" source="14" target="14">
                    <mxGeometry relative="1" as="geometry"/>
                </mxCell>
                <mxCell id="16" style="edgeStyle=none;rounded=0;orthogonalLoop=1;jettySize=auto;html=1;exitX=0.5;exitY=1;exitDx=0;exitDy=0;" edge="1" parent="1" source="14" target="14">
                    <mxGeometry relative="1" as="geometry"/>
                </mxCell>
                <mxCell id="17" style="edgeStyle=none;rounded=0;orthogonalLoop=1;jettySize=auto;html=1;exitX=0.5;exitY=0;exitDx=0;exitDy=0;" edge="1" parent="1" source="14" target="14">
                    <mxGeometry relative="1" as="geometry"/>
                </mxCell>
                <mxCell id="18" value="Chat" style="whiteSpace=wrap;html=1;aspect=fixed;" vertex="1" parent="1">
                    <mxGeometry x="90" y="180" width="125" height="125" as="geometry"/>
                </mxCell>
                <mxCell id="22" style="edgeStyle=none;rounded=0;orthogonalLoop=1;jettySize=auto;html=1;" edge="1" parent="1" source="20">
                    <mxGeometry relative="1" as="geometry">
                        <mxPoint x="220" y="240" as="targetPoint"/>
                    </mxGeometry>
                </mxCell>
                <mxCell id="20" value="Bar Choice" style="rhombus;whiteSpace=wrap;html=1;" vertex="1" parent="1">
                    <mxGeometry x="340" y="200" width="120" height="120" as="geometry"/>
                </mxCell>
            </root>
        </mxGraphModel>
    </diagram>
</mxfile>